<?xml version="1.0" encoding="UTF-8"?>
<!DOCTYPE svg PUBLIC "-//W3C//DTD SVG 1.1//EN" "http://www.w3.org/Graphics/SVG/1.1/DTD/svg11.dtd">
<!-- Creator: CorelDRAW X5 -->
<svg xmlns="http://www.w3.org/2000/svg" xml:space="preserve" width="42.3333mm" height="17.3452mm" style="shape-rendering:geometricPrecision; text-rendering:geometricPrecision; image-rendering:optimizeQuality; fill-rule:evenodd; clip-rule:evenodd"
viewBox="0 0 8.07605e+006 3.309e+006"
 xmlns:xlink="http://www.w3.org/1999/xlink">
 <defs>
  <style type="text/css">
   <![CDATA[
    .fil0 {fill:#CCCCCC;fill-rule:nonzero}
   ]]>
  </style>
 </defs>
 <g id="Capa_x0020_1">
  <metadata id="CorelCorpID_0Corel-Layer"/>
  <path class="fil0" d="M1.91805e+006 620432c239744,-413634 479508,-620432 959054,-620432 529376,0 959016,370596 959016,827249 0,827249 -959016,1.65452e+006 -1.91807e+006,2.48175e+006 -959035,-827230 -1.91805e+006,-1.6545e+006 -1.91805e+006,-2.48175e+006 0,-456653 429640,-827249 959016,-827249 479527,0 719291,206798 959035,620432z"/>
  <path class="fil0" d="M6.15798e+006 620432c239744,-413634 479508,-620432 959054,-620432 529376,0 959016,370596 959016,827249 0,827249 -959016,1.65452e+006 -1.91807e+006,2.48175e+006 -959035,-827230 -1.91805e+006,-1.6545e+006 -1.91805e+006,-2.48175e+006 0,-456653 429640,-827249 959016,-827249 479527,0 719291,206798 959035,620432z"/>
 </g>
</svg>
