<?xml version="1.0" encoding="UTF-8"?>
<!DOCTYPE svg PUBLIC "-//W3C//DTD SVG 1.1//EN" "http://www.w3.org/Graphics/SVG/1.1/DTD/svg11.dtd">
<!-- Creator: CorelDRAW X5 -->
<svg xmlns="http://www.w3.org/2000/svg" xml:space="preserve" width="42.3333mm" height="17.3452mm" style="shape-rendering:geometricPrecision; text-rendering:geometricPrecision; image-rendering:optimizeQuality; fill-rule:evenodd; clip-rule:evenodd"
viewBox="0 0 8.07605e+006 3.309e+006"
 xmlns:xlink="http://www.w3.org/1999/xlink">
 <defs>
  <style type="text/css">
   <![CDATA[
    .fil0 {fill:#C90017;fill-rule:nonzero}
   ]]>
  </style>
 </defs>
 <g id="Capa_x0020_1">
  <metadata id="CorelCorpID_0Corel-Layer"/>
  <path class="fil0" d="M1.91805e+006 620413c239744,-413634 479508,-620413 959054,-620413 529376,0 959016,370596 959016,827230 0,827268 -959016,1.65452e+006 -1.91807e+006,2.48177e+006 -959035,-827249 -1.91805e+006,-1.6545e+006 -1.91805e+006,-2.48177e+006 0,-456634 429640,-827230 959016,-827230 479527,0 719291,206779 959035,620413z"/>
  <path class="fil0" d="M6.15798e+006 620413c239744,-413634 479508,-620413 959054,-620413 529376,0 959016,370596 959016,827230 0,827268 -959016,1.65452e+006 -1.91807e+006,2.48177e+006 -959035,-827249 -1.91805e+006,-1.6545e+006 -1.91805e+006,-2.48177e+006 0,-456634 429640,-827230 959016,-827230 479527,0 719291,206779 959035,620413z"/>
 </g>
</svg>
