<?xml version="1.0" encoding="UTF-8"?>
<!DOCTYPE svg PUBLIC "-//W3C//DTD SVG 1.1//EN" "http://www.w3.org/Graphics/SVG/1.1/DTD/svg11.dtd">
<!-- Creator: CorelDRAW X5 -->
<svg xmlns="http://www.w3.org/2000/svg" xml:space="preserve" width="43.7644mm" height="43.7644mm" style="shape-rendering:geometricPrecision; text-rendering:geometricPrecision; image-rendering:optimizeQuality; fill-rule:evenodd; clip-rule:evenodd"
viewBox="0 0 3.09386e+006 3.09386e+006"
 xmlns:xlink="http://www.w3.org/1999/xlink">
 <defs>
  <style type="text/css">
   <![CDATA[
    .fil0 {fill:#C90017}
   ]]>
  </style>
 </defs>
 <g id="Capa_x0020_1">
  <metadata id="CorelCorpID_0Corel-Layer"/>
  <polygon class="fil0" points="1.54693e+006,0 1.88984e+006,342913 2.23276e+006,685826 1.88984e+006,1.02874e+006 1.54693e+006,1.37165e+006 1.20402e+006,1.02874e+006 861104,685826 1.20402e+006,342913 "/>
  <polygon class="fil0" points="2.40803e+006,861104 2.75095e+006,1.20402e+006 3.09386e+006,1.54693e+006 2.75095e+006,1.88984e+006 2.40803e+006,2.23276e+006 2.06512e+006,1.88984e+006 1.72221e+006,1.54693e+006 2.06512e+006,1.20402e+006 "/>
  <polygon class="fil0" points="685826,861104 1.02874e+006,1.20402e+006 1.37165e+006,1.54693e+006 1.02874e+006,1.88984e+006 685826,2.23276e+006 342913,1.88984e+006 -0,1.54693e+006 342913,1.20402e+006 "/>
  <polygon class="fil0" points="1.54693e+006,1.72221e+006 1.88984e+006,2.06512e+006 2.23276e+006,2.40803e+006 1.88984e+006,2.75095e+006 1.54693e+006,3.09386e+006 1.20402e+006,2.75095e+006 861104,2.40803e+006 1.20402e+006,2.06512e+006 "/>
 </g>
</svg>
