<?xml version="1.0" encoding="UTF-8"?>
<!DOCTYPE svg PUBLIC "-//W3C//DTD SVG 1.1//EN" "http://www.w3.org/Graphics/SVG/1.1/DTD/svg11.dtd">
<!-- Creator: CorelDRAW X5 -->
<svg xmlns="http://www.w3.org/2000/svg" xml:space="preserve" width="43.7644mm" height="43.7644mm" style="shape-rendering:geometricPrecision; text-rendering:geometricPrecision; image-rendering:optimizeQuality; fill-rule:evenodd; clip-rule:evenodd"
viewBox="0 0 5.54241e+006 5.54241e+006"
 xmlns:xlink="http://www.w3.org/1999/xlink">
 <defs>
  <style type="text/css">
   <![CDATA[
    .fil0 {fill:#CCCCCC}
   ]]>
  </style>
 </defs>
 <g id="Capa_x0020_1">
  <metadata id="CorelCorpID_0Corel-Layer"/>
  <polygon class="fil0" points="2.7712e+006,0 3.38551e+006,614302 3.99981e+006,1.2286e+006 3.38551e+006,1.84291e+006 2.7712e+006,2.45721e+006 2.1569e+006,1.84291e+006 1.5426e+006,1.2286e+006 2.1569e+006,614302 "/>
  <polygon class="fil0" points="4.3138e+006,1.5426e+006 4.9281e+006,2.1569e+006 5.54241e+006,2.7712e+006 4.9281e+006,3.38551e+006 4.3138e+006,3.99981e+006 3.6995e+006,3.38551e+006 3.0852e+006,2.7712e+006 3.6995e+006,2.1569e+006 "/>
  <polygon class="fil0" points="1.2286e+006,1.5426e+006 1.84291e+006,2.1569e+006 2.45721e+006,2.7712e+006 1.84291e+006,3.38551e+006 1.2286e+006,3.99981e+006 614302,3.38551e+006 -0,2.7712e+006 614302,2.1569e+006 "/>
  <polygon class="fil0" points="2.7712e+006,3.0852e+006 3.38551e+006,3.6995e+006 3.99981e+006,4.3138e+006 3.38551e+006,4.9281e+006 2.7712e+006,5.54241e+006 2.1569e+006,4.9281e+006 1.5426e+006,4.3138e+006 2.1569e+006,3.6995e+006 "/>
 </g>
</svg>
