<?xml version="1.0" encoding="UTF-8"?>
<!DOCTYPE svg PUBLIC "-//W3C//DTD SVG 1.1//EN" "http://www.w3.org/Graphics/SVG/1.1/DTD/svg11.dtd">
<!-- Creator: CorelDRAW X5 -->
<svg xmlns="http://www.w3.org/2000/svg" xml:space="preserve" width="60.5648mm" height="33.3231mm" style="shape-rendering:geometricPrecision; text-rendering:geometricPrecision; image-rendering:optimizeQuality; fill-rule:evenodd; clip-rule:evenodd"
viewBox="0 0 2.05119e+007 1.12857e+007"
 xmlns:xlink="http://www.w3.org/1999/xlink">
 <defs>
  <style type="text/css">
   <![CDATA[
    .fil0 {fill:#CCCCCC;fill-rule:nonzero}
   ]]>
  </style>
 </defs>
 <g id="Capa_x0020_1">
  <metadata id="CorelCorpID_0Corel-Layer"/>
  <path class="fil0" d="M1.02186e+007 4.20385e+006c468796,-808894 937659,-1.21324e+006 1.87545e+006,-1.21324e+006 1.0352e+006,0 1.87535e+006,724699 1.87535e+006,1.61765e+006 0,1.61775e+006 -1.87535e+006,3.23548e+006 -3.75081e+006,4.85316e+006 -1.87542e+006,-1.61769e+006 -3.75081e+006,-3.23541e+006 -3.75081e+006,-4.85316e+006 0,-892954 840154,-1.61765e+006 1.87539e+006,-1.61765e+006 937727,0 1.40659e+006,404346 1.87542e+006,1.21324e+006z"/>
  <path class="fil0" d="M1.7895e+007 1.37377e+006c519563,-464765 945483,-642841 1.6101e+006,-425750 733708,239647 1.16142e+006,947819 954728,1.5807e+006 -374508,1.14659e+006 -2.07822e+006,1.85903e+006 -3.78196e+006,2.57143e+006 -954728,-1.58074e+006 -1.90942e+006,-3.16144e+006 -1.53491e+006,-4.30803e+006 206728,-632884 969969,-952053 1.70368e+006,-712406 664618,217091 903351,612225 1.04837e+006,1.29405e+006z"/>
  <path class="fil0" d="M1.7895e+007 7.55936e+006c519563,-464765 945483,-642841 1.6101e+006,-425750 733708,239647 1.16142e+006,947786 954728,1.5807e+006 -374508,1.14659e+006 -2.07822e+006,1.85903e+006 -3.78196e+006,2.57143e+006 -954728,-1.58074e+006 -1.90942e+006,-3.16144e+006 -1.53491e+006,-4.30803e+006 206728,-632918 969969,-952053 1.70368e+006,-712406 664618,217091 903351,612225 1.04837e+006,1.29405e+006z"/>
  <path class="fil0" d="M2.61688e+006 1.37381e+006c-519529,-464799 -945449,-642875 -1.61013e+006,-425784 -733708,239647 -1.16142e+006,947819 -954695,1.5807e+006 374508,1.14659e+006 2.07819e+006,1.85903e+006 3.78193e+006,2.57143e+006 954728,-1.5807e+006 1.90946e+006,-3.16144e+006 1.53495e+006,-4.30803e+006 -206728,-632884 -969969,-952053 -1.70368e+006,-712406 -664652,217091 -903351,612225 -1.04837e+006,1.29408e+006z"/>
  <path class="fil0" d="M2.61688e+006 7.55939e+006c-519529,-464799 -945449,-642875 -1.61013e+006,-425784 -733708,239647 -1.16142e+006,947786 -954695,1.5807e+006 374508,1.14659e+006 2.07819e+006,1.85903e+006 3.78193e+006,2.57143e+006 954728,-1.5807e+006 1.90946e+006,-3.16144e+006 1.53495e+006,-4.30803e+006 -206728,-632918 -969969,-952053 -1.70368e+006,-712406 -664652,217091 -903351,612225 -1.04837e+006,1.29408e+006z"/>
 </g>
</svg>
