<?xml version="1.0" encoding="UTF-8"?>
<!DOCTYPE svg PUBLIC "-//W3C//DTD SVG 1.1//EN" "http://www.w3.org/Graphics/SVG/1.1/DTD/svg11.dtd">
<!-- Creator: CorelDRAW X6 -->
<svg xmlns="http://www.w3.org/2000/svg" xml:space="preserve" width="100%" height="100%" version="1.1" style="shape-rendering:geometricPrecision; text-rendering:geometricPrecision; image-rendering:optimizeQuality; fill-rule:evenodd; clip-rule:evenodd"
viewBox="0 0 303 399"
 xmlns:xlink="http://www.w3.org/1999/xlink">
 <defs>
  <style type="text/css">
   <![CDATA[
    .fil0 {fill:white}
   ]]>
  </style>
 </defs>
 <g id="Capa_x0020_1">
  <metadata id="CorelCorpID_0Corel-Layer"/>
  <path class="fil0" d="M210 272l-64 -30 -68 31 22 -62 -34 -51 54 1 26 -65 33 65 45 0 -36 50 21 61zm-191 -269c-25,7 -18,56 -18,76 0,94 1,192 0,285 -1,55 5,31 45,18 9,-3 23,-11 31,-16 10,-5 24,-7 35,-13 48,-23 35,-19 66,-4 21,10 47,18 67,28 10,5 21,10 31,15 16,8 23,15 26,-9 2,-15 0,-257 0,-285 0,-104 8,-96 -94,-96 -31,0 -171,-4 -190,1z"/>
 </g>
</svg>
