<?xml version="1.0" encoding="UTF-8"?>
<!DOCTYPE svg PUBLIC "-//W3C//DTD SVG 1.1//EN" "http://www.w3.org/Graphics/SVG/1.1/DTD/svg11.dtd">
<!-- Creator: CorelDRAW X6 -->
<svg xmlns="http://www.w3.org/2000/svg" xml:space="preserve" width="100%" height="100%" version="1.1" style="shape-rendering:geometricPrecision; text-rendering:geometricPrecision; image-rendering:optimizeQuality; fill-rule:evenodd; clip-rule:evenodd"
viewBox="0 0 1060 1165"
 xmlns:xlink="http://www.w3.org/1999/xlink">
 <defs>
  <style type="text/css">
   <![CDATA[
    .fil0 {fill:#B3B3B3}
    .fil1 {fill:#B3B3B3;fill-rule:nonzero}
   ]]>
  </style>
 </defs>
 <g id="Capa_x0020_1">
  <metadata id="CorelCorpID_0Corel-Layer"/>
  <g id="_477530344">
   <polygon class="fil0" points="41,0 307,0 307,266 41,266 "/>
   <polygon class="fil0" points="744,365 1010,365 1010,763 744,763 "/>
   <polygon class="fil0" points="423,0 1019,0 1019,266 423,266 "/>
   <polygon class="fil0" points="41,365 637,365 637,763 41,763 "/>
  </g>
  <path class="fil1" d="M0 1160l0 -301 113 0c23,0 41,3 55,9 14,6 25,15 33,28 8,13 12,26 12,40 0,13 -3,25 -10,36 -7,11 -17,21 -32,28 18,5 32,14 42,27 10,13 15,28 15,46 0,14 -3,27 -9,39 -6,12 -13,21 -22,28 -9,7 -20,11 -33,15 -13,3 -29,5 -49,5l-115 0zm40 -174l65 0c18,0 30,-1 38,-3 10,-3 18,-8 23,-15 5,-7 8,-16 8,-26 0,-10 -2,-19 -7,-26 -5,-8 -12,-13 -21,-16 -9,-3 -24,-4 -46,-4l-60 0 0 91zm0 139l75 0c13,0 22,0 27,-1 9,-2 17,-4 23,-8 6,-4 11,-9 15,-17 4,-7 6,-16 6,-25 0,-11 -3,-21 -9,-29 -6,-8 -14,-14 -24,-18 -10,-3 -25,-5 -44,-5l-70 0 0 104zm223 -74c0,-40 11,-70 34,-89 19,-16 42,-24 69,-24 30,0 54,10 73,29 19,20 29,47 29,81 0,28 -4,50 -13,66 -8,16 -21,29 -37,37 -16,9 -34,13 -53,13 -31,0 -55,-10 -74,-29 -19,-20 -28,-48 -28,-84zm38 0c0,28 6,49 18,63 12,14 28,21 46,21 18,0 34,-7 46,-21 12,-14 18,-35 18,-64 0,-27 -6,-47 -18,-61 -12,-14 -28,-21 -46,-21 -19,0 -34,7 -46,21 -12,14 -18,35 -18,62zm352 82c-14,12 -27,20 -40,25 -13,5 -26,7 -41,7 -24,0 -42,-6 -55,-17 -13,-12 -19,-27 -19,-45 0,-11 2,-20 7,-29 5,-9 11,-16 19,-21 8,-5 17,-9 27,-12 7,-2 18,-4 33,-6 30,-4 52,-8 66,-13 0,-5 0,-8 0,-10 0,-15 -4,-26 -11,-32 -9,-8 -24,-12 -42,-12 -17,0 -30,3 -39,9 -8,6 -14,17 -18,32l-36 -5c3,-15 9,-28 16,-38 8,-10 18,-17 33,-22 14,-5 31,-8 50,-8 19,0 34,2 46,7 12,4 20,10 26,17 5,7 9,15 12,25 1,6 2,18 2,34l0 49c0,34 1,56 2,65 1,9 5,18 9,26l-39 0c-4,-8 -6,-17 -7,-27zm-3 -82c-13,5 -34,10 -61,14 -15,2 -26,5 -32,7 -6,3 -11,7 -15,12 -3,5 -5,11 -5,18 0,10 4,18 11,24 7,7 18,10 33,10 14,0 27,-3 38,-9 11,-6 19,-15 24,-25 4,-8 6,-21 6,-37l0 -13zm94 109l0 -218 33 0 0 33c8,-15 16,-26 24,-31 7,-5 15,-7 24,-7 12,0 25,4 38,12l-13 34c-9,-5 -18,-8 -27,-8 -8,0 -15,2 -22,7 -6,5 -11,12 -14,20 -4,13 -6,27 -6,43l0 114 -37 0zm281 0l0 -28c-14,21 -34,32 -61,32 -17,0 -33,-5 -48,-14 -15,-10 -26,-23 -34,-40 -8,-17 -12,-37 -12,-59 0,-22 4,-41 11,-59 7,-18 18,-31 33,-41 14,-9 31,-14 49,-14 13,0 25,3 35,8 10,6 19,13 25,22l0 -108 37 0 0 301 -34 0zm-117 -109c0,28 6,49 18,62 12,14 26,21 42,21 16,0 30,-7 41,-20 11,-13 17,-33 17,-60 0,-30 -6,-52 -17,-65 -11,-14 -26,-21 -43,-21 -16,0 -30,7 -41,20 -11,13 -17,34 -17,63z"/>
 </g>
</svg>
