<?xml version="1.0" encoding="UTF-8"?>
<!DOCTYPE svg PUBLIC "-//W3C//DTD SVG 1.1//EN" "http://www.w3.org/Graphics/SVG/1.1/DTD/svg11.dtd">
<!-- Creator: CorelDRAW X6 -->
<svg xmlns="http://www.w3.org/2000/svg" xml:space="preserve" width="100%" height="100%" version="1.1" style="shape-rendering:geometricPrecision; text-rendering:geometricPrecision; image-rendering:optimizeQuality; fill-rule:evenodd; clip-rule:evenodd"
viewBox="0 0 1672 1390"
 xmlns:xlink="http://www.w3.org/1999/xlink">
 <defs>
  <style type="text/css">
   <![CDATA[
    .fil1 {fill:#0AA39D}
    .fil0 {fill:#0AA39D;fill-rule:nonzero}
   ]]>
  </style>
 </defs>
 <g id="Capa_x0020_1">
  <metadata id="CorelCorpID_0Corel-Layer"/>
  <path class="fil0" d="M0 1301l0 -304 60 0 72 215c7,20 11,35 15,45 3,-11 9,-27 16,-49l73 -211 54 0 0 304 -39 0 0 -254 -89 254 -36 0 -88 -259 0 259 -39 0z"/>
  <path id="1" class="fil0" d="M500 1230l39 5c-6,22 -17,40 -34,52 -16,12 -37,19 -63,19 -32,0 -58,-10 -76,-30 -19,-20 -28,-48 -28,-83 0,-37 9,-66 29,-86 19,-20 44,-31 74,-31 29,0 53,10 72,30 19,20 28,48 28,84 0,2 0,6 0,10l-164 0c1,24 8,43 21,55 12,13 28,19 46,19 14,0 25,-4 35,-11 10,-7 17,-19 23,-35zm-122 -60l123 0c-2,-19 -6,-32 -14,-42 -12,-14 -27,-22 -46,-22 -17,0 -31,6 -43,17 -12,11 -18,27 -19,46z"/>
  <path id="2" class="fil0" d="M571 1235l37 -6c2,15 8,26 17,34 9,8 23,12 40,12 17,0 30,-3 38,-10 8,-7 12,-15 12,-25 0,-8 -4,-15 -11,-20 -5,-3 -18,-8 -38,-13 -27,-7 -46,-13 -57,-18 -11,-5 -19,-12 -24,-21 -5,-9 -8,-19 -8,-29 0,-10 2,-19 7,-27 5,-8 11,-15 18,-21 6,-4 14,-8 24,-11 10,-3 21,-4 32,-4 17,0 32,2 45,8 13,5 23,12 29,20 6,9 10,20 13,34l-36 5c-2,-11 -6,-20 -14,-27 -8,-6 -19,-10 -34,-10 -17,0 -29,3 -37,8 -7,6 -11,12 -11,20 0,5 1,9 5,13 3,4 8,7 14,10 4,1 15,5 33,10 26,7 45,13 55,17 10,4 19,11 25,20 6,9 9,19 9,32 0,12 -4,24 -11,35 -7,11 -18,19 -31,25 -14,6 -29,9 -46,9 -29,0 -50,-6 -65,-18 -15,-12 -25,-29 -29,-53z"/>
  <path id="3" class="fil0" d="M783 1235l37 -6c2,15 8,26 17,34 9,8 23,12 40,12 17,0 30,-3 38,-10 8,-7 12,-15 12,-25 0,-8 -4,-15 -11,-20 -5,-3 -18,-8 -38,-13 -27,-7 -46,-13 -57,-18 -11,-5 -19,-12 -24,-21 -5,-9 -8,-19 -8,-29 0,-10 2,-19 7,-27 5,-8 11,-15 18,-21 6,-4 14,-8 24,-11 10,-3 21,-4 32,-4 17,0 32,2 45,8 13,5 23,12 29,20 6,9 10,20 13,34l-36 5c-2,-11 -6,-20 -14,-27 -8,-6 -19,-10 -34,-10 -17,0 -29,3 -37,8 -7,6 -11,12 -11,20 0,5 1,9 5,13 3,4 8,7 14,10 4,1 15,5 33,10 26,7 45,13 55,17 10,4 19,11 25,20 6,9 9,19 9,32 0,12 -4,24 -11,35 -7,11 -18,19 -31,25 -14,6 -29,9 -46,9 -29,0 -50,-6 -65,-18 -15,-12 -25,-29 -29,-53z"/>
  <path id="4" class="fil0" d="M1154 1274c-14,12 -27,20 -40,25 -13,5 -27,7 -41,7 -24,0 -43,-6 -56,-18 -13,-12 -20,-27 -20,-45 0,-11 2,-21 7,-29 5,-9 11,-16 19,-21 8,-5 17,-9 27,-12 7,-2 18,-4 33,-6 30,-4 52,-8 67,-13 0,-5 0,-8 0,-10 0,-15 -4,-26 -11,-32 -10,-8 -24,-13 -43,-13 -18,0 -31,3 -39,9 -8,6 -15,17 -19,33l-36 -5c3,-16 9,-28 16,-38 8,-10 19,-17 33,-22 14,-5 31,-8 50,-8 19,0 34,2 46,7 12,4 20,10 26,17 6,7 9,15 12,25 1,6 2,18 2,34l0 50c0,35 1,56 2,66 1,9 5,18 9,27l-39 0c-4,-8 -6,-17 -7,-28zm-3 -83c-14,6 -34,10 -61,14 -15,2 -26,5 -33,7 -6,3 -11,7 -15,12 -3,5 -5,11 -5,18 0,10 4,18 11,25 8,7 19,10 33,10 14,0 27,-3 38,-9 11,-6 19,-15 25,-26 4,-8 6,-21 6,-37l0 -14z"/>
  <path id="5" class="fil0" d="M1239 1319l36 5c1,11 6,19 13,24 9,7 22,10 38,10 17,0 31,-3 40,-10 9,-7 16,-17 19,-29 2,-8 3,-23 3,-48 -16,19 -37,29 -61,29 -30,0 -54,-11 -70,-33 -17,-22 -25,-48 -25,-78 0,-21 4,-40 11,-58 8,-18 19,-31 33,-41 14,-10 31,-15 51,-15 26,0 47,11 64,32l0 -27 34 0 0 190c0,34 -3,59 -10,73 -7,14 -18,26 -33,34 -15,8 -34,12 -56,12 -26,0 -47,-6 -64,-18 -16,-12 -24,-29 -23,-53zm31 -132c0,29 6,50 17,63 12,13 26,20 43,20 17,0 32,-7 43,-20 12,-13 17,-34 17,-62 0,-27 -6,-47 -18,-61 -12,-14 -26,-20 -43,-20 -17,0 -31,7 -42,20 -12,13 -17,33 -17,60z"/>
  <path id="6" class="fil0" d="M1632 1230l39 5c-6,22 -17,40 -34,52 -16,12 -37,19 -63,19 -32,0 -58,-10 -76,-30 -19,-20 -28,-48 -28,-83 0,-37 9,-66 29,-86 19,-20 44,-31 74,-31 29,0 53,10 72,30 19,20 28,48 28,84 0,2 0,6 0,10l-164 0c1,24 8,43 21,55 12,13 28,19 46,19 14,0 25,-4 35,-11 10,-7 17,-19 23,-35zm-122 -60l123 0c-2,-19 -6,-32 -14,-42 -12,-14 -27,-22 -46,-22 -17,0 -31,6 -43,17 -12,11 -18,27 -19,46z"/>
  <path class="fil1" d="M582 713l0 -451c0,-19 25,-35 46,-35l618 0c55,0 52,49 52,104l0 474c-150,-80 -61,-58 -347,-58 -29,0 -328,6 -348,-5 -9,-4 -22,-18 -22,-30zm133 -312c0,16 3,16 6,29 58,14 336,6 416,6 21,0 27,-21 29,-40 -11,-12 -23,-23 -46,-23l-352 0c-23,0 -52,6 -52,29zm0 179c0,16 3,16 6,29 58,14 336,6 416,6 21,0 27,-21 29,-40 -11,-12 -23,-23 -46,-23l-352 0c-23,0 -52,6 -52,29zm-196 -300l0 121c-76,0 -81,-8 -144,35 0,-65 0,-131 0,-196 0,-41 -15,-173 23,-173l428 0c32,0 23,63 23,104l-237 0c-44,0 -92,51 -92,110zm-202 -202l0 416c0,47 64,8 80,-1 59,-36 45,-28 122,-28l0 225c0,79 46,122 127,122l503 0c84,0 126,75 185,75 14,0 23,-10 23,-23l0 -595c0,-53 -47,-98 -98,-98l-352 0c0,-91 20,-168 -116,-168 -82,0 -386,-12 -436,15 -19,10 -38,34 -38,60z"/>
 </g>
</svg>
