<?xml version="1.0" encoding="UTF-8"?>
<!DOCTYPE svg PUBLIC "-//W3C//DTD SVG 1.1//EN" "http://www.w3.org/Graphics/SVG/1.1/DTD/svg11.dtd">
<!-- Creator: CorelDRAW X6 -->
<svg xmlns="http://www.w3.org/2000/svg" xml:space="preserve" width="100%" height="100%" version="1.1" style="shape-rendering:geometricPrecision; text-rendering:geometricPrecision; image-rendering:optimizeQuality; fill-rule:evenodd; clip-rule:evenodd"
viewBox="0 0 1059 1313"
 xmlns:xlink="http://www.w3.org/1999/xlink">
 <defs>
  <style type="text/css">
   <![CDATA[
    .fil0 {fill:#0AA39D}
    .fil1 {fill:#0AA39D;fill-rule:nonzero}
   ]]>
  </style>
 </defs>
 <g id="Capa_x0020_1">
  <metadata id="CorelCorpID_0Corel-Layer"/>
  <path class="fil0" d="M817 310c8,75 -6,292 8,336 8,25 28,51 49,64 25,16 50,15 60,33 12,21 -3,46 -22,46l-263 0 0 0 -239 0 -19 0 -244 0c-12,0 -20,-11 -20,-11l-1 -1c-2,-2 0,1 -2,-4 -11,-20 3,-41 30,-50 34,-11 57,-30 73,-61 7,-14 13,-32 13,-52 3,-87 0,-141 0,-228 0,-50 0,-82 12,-120 3,-9 5,-17 8,-25 30,-78 98,-148 181,-165 0,-17 17,-41 27,-50 16,-13 34,-21 52,-23l19 0c25,3 49,16 66,42l1 1c23,36 -10,19 40,40 25,10 40,16 61,33l16 14 5 4c25,25 41,46 58,77 15,28 28,70 31,99zm-170 500c-10,58 -60,100 -110,100l-15 0c-50,0 -101,-42 -110,-100l236 0z"/>
  <path class="fil1" d="M0 1309l115 -301 44 0 122 301 -45 0 -35 -91 -127 0 -33 91 -42 0zm87 -124l103 0 -31 -83c-9,-25 -17,-46 -22,-63 -4,20 -10,39 -17,58l-33 88zm221 124l0 -301 37 0 0 301 -37 0zm243 -71l38 5c-6,22 -17,39 -33,52 -16,12 -37,18 -62,18 -32,0 -57,-10 -76,-29 -19,-20 -28,-47 -28,-82 0,-37 9,-65 28,-85 19,-20 43,-30 73,-30 29,0 53,10 71,30 18,20 28,48 28,84 0,2 0,5 0,10l-162 0c1,24 8,42 20,55 12,13 27,19 45,19 14,0 25,-4 35,-11 10,-7 17,-19 23,-34zm-121 -59l121 0c-2,-18 -6,-32 -14,-41 -12,-14 -27,-21 -46,-21 -17,0 -31,6 -43,17 -11,11 -18,27 -19,46zm206 130l0 -218 33 0 0 33c8,-15 16,-26 24,-31 7,-5 15,-7 24,-7 12,0 25,4 38,12l-13 34c-9,-5 -18,-8 -27,-8 -8,0 -15,2 -22,7 -6,5 -11,12 -14,20 -4,13 -6,27 -6,43l0 114 -37 0zm221 -33l5 33c-10,2 -20,3 -28,3 -13,0 -24,-2 -31,-6 -7,-4 -13,-10 -16,-17 -3,-7 -4,-21 -4,-44l0 -126 -27 0 0 -29 27 0 0 -54 37 -22 0 76 37 0 0 29 -37 0 0 128c0,11 1,17 2,20 1,3 3,5 6,7 3,2 7,3 13,3 4,0 9,0 16,-1zm22 -32l37 -6c2,15 8,26 17,34 9,8 23,12 39,12 17,0 30,-3 38,-10 8,-7 12,-15 12,-24 0,-8 -4,-15 -11,-20 -5,-3 -18,-7 -38,-13 -27,-7 -46,-13 -56,-18 -10,-5 -18,-12 -24,-21 -5,-9 -8,-18 -8,-29 0,-10 2,-19 7,-27 4,-8 11,-15 18,-21 6,-4 14,-8 23,-11 10,-3 21,-4 32,-4 17,0 32,2 45,7 13,5 22,12 29,20 6,8 10,20 13,34l-36 5c-2,-11 -6,-20 -14,-27 -8,-6 -19,-10 -33,-10 -17,0 -29,3 -36,8 -7,6 -11,12 -11,20 0,5 1,9 4,13 3,4 8,7 14,10 4,1 15,5 33,9 26,7 44,13 55,17 10,4 18,11 24,19 6,8 9,19 9,32 0,12 -4,24 -11,35 -7,11 -18,19 -31,25 -14,6 -29,9 -46,9 -28,0 -50,-6 -65,-18 -15,-12 -24,-29 -28,-52z"/>
 </g>
</svg>
