<?xml version="1.0" encoding="UTF-8"?>
<!DOCTYPE svg PUBLIC "-//W3C//DTD SVG 1.1//EN" "http://www.w3.org/Graphics/SVG/1.1/DTD/svg11.dtd">
<!-- Creator: CorelDRAW X6 -->
<svg xmlns="http://www.w3.org/2000/svg" xml:space="preserve" width="100%" height="100%" version="1.1" style="shape-rendering:geometricPrecision; text-rendering:geometricPrecision; image-rendering:optimizeQuality; fill-rule:evenodd; clip-rule:evenodd"
viewBox="0 0 473 473"
 xmlns:xlink="http://www.w3.org/1999/xlink">
 <defs>
  <style type="text/css">
   <![CDATA[
    .fil0 {fill:#FFAA00}
    .fil1 {fill:url(#id0)}
   ]]>
  </style>
  <linearGradient id="id0" gradientUnits="userSpaceOnUse" x1="236.42" y1="18.26" x2="236.42" y2="454.6">
   <stop offset="0" style="stop-color:white"/>
   <stop offset="0.6" style="stop-color:white"/>
   <stop offset="1" style="stop-color:#E6E6E6"/>
  </linearGradient>
 </defs>
 <g id="Capa_x0020_1">
  <metadata id="CorelCorpID_0Corel-Layer"/>
  <circle class="fil0" cx="236" cy="236" r="236"/>
  <circle class="fil1" cx="236" cy="236" r="218"/>
  <path class="fil0" d="M330 221l-31 0 -62 0 0 -47c0,-34 -28,-62 -62,-62 -34,0 -62,28 -62,62l0 47 31 0 0 -47c0,-17 14,-31 31,-31 17,0 31,14 31,31l0 47c-17,0 -31,14 -31,31l0 78c0,17 14,31 31,31l125 0c17,0 31,-14 31,-31l0 -78c0,-17 -14,-31 -31,-31zm-55 76l0 26c0,4 -3,8 -8,8 -4,0 -8,-3 -8,-8l0 -26c-5,-3 -8,-8 -8,-13 0,-9 7,-16 16,-16 9,0 16,7 16,16 0,6 -3,11 -8,13z"/>
 </g>
</svg>
