<?xml version="1.0" encoding="UTF-8"?>
<!DOCTYPE svg PUBLIC "-//W3C//DTD SVG 1.1//EN" "http://www.w3.org/Graphics/SVG/1.1/DTD/svg11.dtd">
<!-- Creator: CorelDRAW X6 -->
<svg xmlns="http://www.w3.org/2000/svg" xml:space="preserve" width="100%" height="100%" version="1.1" style="shape-rendering:geometricPrecision; text-rendering:geometricPrecision; image-rendering:optimizeQuality; fill-rule:evenodd; clip-rule:evenodd"
viewBox="0 0 1818 1382"
 xmlns:xlink="http://www.w3.org/1999/xlink">
 <defs>
  <style type="text/css">
   <![CDATA[
    .fil0 {fill:#0AA39D}
    .fil1 {fill:#0AA39D;fill-rule:nonzero}
   ]]>
  </style>
 </defs>
 <g id="Capa_x0020_1">
  <metadata id="CorelCorpID_0Corel-Layer"/>
  <path class="fil0" d="M890 1c-111,10 -204,107 -192,231 10,110 109,202 232,189 109,-11 200,-108 188,-230 -10,-109 -107,-202 -229,-190zm434 698l0 0c0,12 -10,21 -21,21l-789 0c-12,0 -21,-10 -21,-21l0 0c0,-10 83,-170 96,-187 27,-35 64,-68 105,-87 54,-25 112,49 212,52 77,2 166,-75 213,-51 41,21 78,50 104,87 2,2 100,185 100,186z"/>
  <path class="fil0" d="M510 754l798 0c12,0 21,10 21,21l0 0c0,12 -10,21 -21,21l-798 0c-12,0 -21,-10 -21,-21l0 0c0,-12 10,-21 21,-21z"/>
  <path class="fil0" d="M510 838l798 0c12,0 21,10 21,21l0 0c0,12 -10,21 -21,21l-798 0c-12,0 -21,-10 -21,-21l0 0c0,-12 10,-21 21,-21z"/>
  <path class="fil1" d="M0 1294l0 -301 60 0 71 213c7,20 11,35 14,45 3,-11 9,-27 16,-48l72 -209 53 0 0 301 -38 0 0 -252 -88 252 -36 0 -87 -256 0 256 -38 0zm344 84l-4 -34c8,2 15,3 21,3 8,0 15,-1 20,-4 5,-3 9,-7 12,-11 2,-4 6,-13 11,-28 1,-2 2,-5 3,-9l-83 -219 39 0 46 126c6,16 11,33 16,50 4,-17 9,-33 15,-49l46 -127 37 0 -82 222c-9,24 -16,40 -21,49 -7,12 -14,21 -23,27 -9,6 -19,8 -30,8 -7,0 -15,-1 -24,-4zm333 -84l0 -301 114 0c20,0 35,1 46,3 15,2 27,7 37,14 10,7 18,17 24,29 6,12 9,26 9,41 0,25 -8,47 -24,65 -16,18 -46,27 -88,27l-77 0 0 123 -40 0zm40 -158l78 0c26,0 44,-5 55,-14 11,-10 16,-23 16,-40 0,-13 -3,-23 -10,-32 -6,-9 -15,-15 -25,-18 -7,-2 -19,-3 -37,-3l-77 0 0 108zm235 158l0 -218 33 0 0 33c8,-15 16,-26 24,-31 7,-5 15,-7 24,-7 12,0 25,4 38,12l-13 34c-9,-5 -18,-8 -27,-8 -8,0 -15,2 -22,7 -6,5 -11,12 -14,20 -4,13 -6,27 -6,43l0 114 -37 0zm126 -109c0,-40 11,-70 34,-89 19,-16 42,-24 69,-24 30,0 54,10 73,29 19,20 29,47 29,81 0,28 -4,50 -13,66 -8,16 -21,29 -37,37 -16,9 -34,13 -53,13 -31,0 -55,-10 -74,-29 -19,-20 -28,-48 -28,-84zm38 0c0,28 6,49 18,63 12,14 28,21 46,21 18,0 34,-7 46,-21 12,-14 18,-35 18,-64 0,-27 -6,-47 -18,-61 -12,-14 -28,-21 -46,-21 -19,0 -34,7 -46,21 -12,14 -18,35 -18,62zm219 109l0 -189 -33 0 0 -29 33 0 0 -23c0,-15 1,-25 4,-33 4,-10 10,-17 19,-23 9,-6 21,-9 38,-9 10,0 22,1 35,4l-6 32c-8,-1 -15,-2 -22,-2 -11,0 -19,2 -24,7 -5,5 -7,14 -7,27l0 20 42 0 0 29 -42 0 0 189 -37 0zm108 -259l0 -42 37 0 0 42 -37 0zm0 259l0 -218 37 0 0 218 -37 0zm93 0l0 -301 37 0 0 301 -37 0zm243 -71l38 5c-6,22 -17,39 -33,52 -16,12 -37,18 -62,18 -32,0 -57,-10 -76,-29 -19,-20 -28,-47 -28,-82 0,-37 9,-65 28,-85 19,-20 43,-30 73,-30 29,0 53,10 71,30 18,20 28,48 28,84 0,2 0,5 0,10l-162 0c1,24 8,42 20,55 12,13 27,19 45,19 14,0 25,-4 35,-11 10,-7 17,-19 23,-34zm-121 -59l121 0c-2,-18 -6,-32 -14,-41 -12,-14 -27,-21 -46,-21 -17,0 -31,6 -43,17 -11,11 -18,27 -19,46z"/>
 </g>
</svg>
