<?xml version="1.0" encoding="UTF-8"?>
<!DOCTYPE svg PUBLIC "-//W3C//DTD SVG 1.1//EN" "http://www.w3.org/Graphics/SVG/1.1/DTD/svg11.dtd">
<!-- Creator: CorelDRAW X6 -->
<svg xmlns="http://www.w3.org/2000/svg" xml:space="preserve" width="100%" height="100%" version="1.1" style="shape-rendering:geometricPrecision; text-rendering:geometricPrecision; image-rendering:optimizeQuality; fill-rule:evenodd; clip-rule:evenodd"
viewBox="0 0 473 473"
 xmlns:xlink="http://www.w3.org/1999/xlink">
 <defs>
  <style type="text/css">
   <![CDATA[
    .fil0 {fill:#FFAA00}
    .fil1 {fill:url(#id0)}
   ]]>
  </style>
  <linearGradient id="id0" gradientUnits="userSpaceOnUse" x1="236.42" y1="18.26" x2="236.42" y2="454.6">
   <stop offset="0" style="stop-color:white"/>
   <stop offset="0.6" style="stop-color:white"/>
   <stop offset="1" style="stop-color:#E6E6E6"/>
  </linearGradient>
 </defs>
 <g id="Capa_x0020_1">
  <metadata id="CorelCorpID_0Corel-Layer"/>
  <circle class="fil0" cx="236" cy="236" r="236"/>
  <circle class="fil1" cx="236" cy="236" r="218"/>
  <path class="fil0" d="M236 182c30,0 55,24 55,55 0,30 -24,55 -55,55 -30,0 -55,-24 -55,-55 0,-30 24,-55 55,-55zm-7 -73l14 0c6,1 10,3 11,11 3,19 1,22 16,28 14,5 16,9 27,1 3,-2 6,-4 9,-7 3,-3 7,-4 12,-2 2,1 15,13 16,16 3,8 -4,13 -9,21 -6,9 -5,11 -2,20 9,23 7,20 32,24 2,0 3,0 4,1 4,2 6,6 6,10l0 12c-1,6 -3,11 -10,12 -24,4 -22,0 -32,24 -1,2 -3,5 -3,8 0,7 7,14 12,20 7,10 1,14 -5,20 -6,6 -11,12 -20,5 -20,-15 -16,-14 -37,-6 -6,2 -9,3 -12,9 -1,3 -1,6 -2,9 0,3 -1,12 -2,14 0,1 -2,3 -2,3 -1,1 -5,3 -7,3l-14 0c-6,-1 -10,-3 -11,-11 -1,-4 -2,-15 -3,-19 -3,-6 -7,-7 -13,-9 -3,-1 -12,-6 -16,-6 -10,0 -19,14 -25,14 -6,0 -9,-1 -13,-4 -1,-1 -2,-1 -3,-2l-5 -6c-9,-9 1,-15 9,-27 5,-7 2,-11 0,-17 -4,-9 -6,-17 -13,-20 -9,-4 -29,1 -29,-15l0 -12c0,-3 1,-6 3,-8 3,-3 12,-4 17,-5 12,-2 13,-3 18,-15 7,-17 9,-16 -2,-30 -2,-2 -3,-4 -5,-6 -8,-11 1,-15 10,-25 11,-11 22,12 35,12 2,0 6,-2 8,-3 9,-4 16,-5 20,-12 1,-2 1,-6 2,-9 0,-3 1,-6 1,-10 1,-6 4,-11 11,-11z"/>
 </g>
</svg>
