<?xml version="1.0" encoding="UTF-8"?>
<!DOCTYPE svg PUBLIC "-//W3C//DTD SVG 1.1//EN" "http://www.w3.org/Graphics/SVG/1.1/DTD/svg11.dtd">
<!-- Creator: CorelDRAW X6 -->
<svg xmlns="http://www.w3.org/2000/svg" xml:space="preserve" width="100%" height="100%" version="1.1" style="shape-rendering:geometricPrecision; text-rendering:geometricPrecision; image-rendering:optimizeQuality; fill-rule:evenodd; clip-rule:evenodd"
viewBox="0 0 1608 1330"
 xmlns:xlink="http://www.w3.org/1999/xlink">
 <defs>
  <style type="text/css">
   <![CDATA[
    .str0 {stroke:#0AA39D;stroke-width:50.8}
    .fil0 {fill:#CC0033}
    .fil1 {fill:#0AA39D;fill-rule:nonzero}
   ]]>
  </style>
 </defs>
 <g id="Capa_x0020_1">
  <metadata id="CorelCorpID_0Corel-Layer"/>
  <path class="fil0 str0" d="M449 331c0,-76 33,-146 84,-197 27,-27 58,-48 93,-63 35,-15 72,-23 110,-23 67,0 136,26 196,86 68,68 92,149 84,224 -5,48 -23,93 -50,133 -27,39 -64,72 -106,94 -69,35 -153,43 -240,4 -51,-23 -93,-61 -123,-105 -31,-46 -48,-100 -48,-152zm-20 -18c0,101 31,182 86,238 56,56 137,86 238,86 66,0 99,-19 137,-41 8,-5 16,-9 25,-14l7 -4 4 6c19,28 50,57 79,85 11,11 23,21 33,32l0 0 4 4 0 0c17,20 95,108 127,108 6,0 9,-6 9,-21 0,-17 -67,-82 -127,-139 -42,-40 -81,-77 -93,-96l-3 -5 3 -5c7,-11 13,-19 18,-26 48,-71 64,-94 64,-209 0,-80 -34,-153 -93,-205 -57,-51 -137,-82 -231,-82 -74,0 -146,35 -199,88 -53,53 -88,125 -88,199z"/>
  <path class="fil1" d="M0 1325l0 -301 104 0c23,0 41,1 54,4 17,4 32,11 44,22 16,13 28,31 36,51 8,21 12,45 12,72 0,23 -3,43 -8,61 -5,18 -12,32 -21,44 -8,12 -18,21 -27,27 -10,7 -22,12 -36,15 -14,3 -30,5 -48,5l-109 0zm40 -35l64 0c20,0 35,-2 47,-6 11,-4 20,-9 27,-16 9,-9 17,-22 22,-38 5,-16 8,-35 8,-58 0,-32 -5,-56 -15,-73 -10,-17 -23,-28 -38,-34 -11,-4 -28,-6 -51,-6l-63 0 0 230zm259 -223l0 -42 37 0 0 42 -37 0zm0 259l0 -218 37 0 0 218 -37 0zm79 -65l37 -6c2,15 8,26 17,34 9,8 23,12 39,12 17,0 30,-3 38,-10 8,-7 12,-15 12,-24 0,-8 -4,-15 -11,-20 -5,-3 -18,-7 -38,-13 -27,-7 -46,-13 -56,-18 -10,-5 -18,-12 -24,-21 -5,-9 -8,-18 -8,-29 0,-10 2,-19 7,-27 4,-8 10,-15 18,-21 6,-4 14,-8 23,-11 10,-3 21,-4 32,-4 17,0 32,2 45,7 13,5 22,12 29,20 6,8 10,20 13,34l-36 5c-2,-11 -6,-20 -14,-27 -8,-6 -19,-10 -33,-10 -17,0 -29,3 -36,8 -7,6 -11,12 -11,20 0,5 1,9 4,13 3,4 8,7 14,10 4,1 15,5 33,9 26,7 44,13 55,17 10,4 18,11 24,19 6,8 9,19 9,32 0,12 -4,24 -11,35 -7,11 -18,19 -31,25 -14,6 -29,9 -46,9 -28,0 -50,-6 -65,-18 -15,-12 -24,-29 -28,-52zm367 -15l36 5c-4,25 -14,44 -30,58 -16,14 -36,21 -60,21 -30,0 -54,-10 -72,-29 -18,-19 -27,-47 -27,-84 0,-24 4,-44 12,-62 8,-18 20,-31 36,-40 16,-9 33,-13 52,-13 24,0 43,6 58,18 15,12 25,29 29,51l-36 5c-3,-15 -9,-26 -18,-33 -9,-7 -19,-11 -32,-11 -19,0 -34,7 -45,20 -12,13 -17,34 -17,63 0,29 6,50 17,64 11,13 26,20 44,20 15,0 27,-4 36,-13 10,-9 16,-22 18,-41zm54 -29c0,-40 11,-70 34,-89 19,-16 42,-24 69,-24 30,0 54,10 73,29 19,20 28,47 28,81 0,28 -4,50 -13,66 -8,16 -21,29 -37,37 -16,9 -34,13 -53,13 -31,0 -55,-10 -74,-29 -19,-20 -28,-48 -28,-84zm38 0c0,28 6,49 18,63 12,14 28,21 46,21 18,0 34,-7 46,-21 12,-14 18,-35 18,-64 0,-27 -6,-47 -18,-61 -12,-14 -28,-21 -46,-21 -19,0 -34,7 -46,21 -12,14 -18,35 -18,62zm269 109l-82 -218 40 0 47 131c5,14 10,29 14,44 3,-11 8,-25 14,-41l48 -133 38 0 -83 218 -36 0zm299 -71l38 5c-6,22 -17,39 -33,52 -16,12 -37,18 -62,18 -32,0 -57,-10 -76,-29 -19,-20 -28,-47 -28,-82 0,-37 9,-65 28,-85 19,-20 43,-30 73,-30 29,0 53,10 71,30 18,20 28,48 28,84 0,2 0,5 0,10l-162 0c1,24 8,42 20,55 12,13 27,19 45,19 14,0 25,-4 35,-11 10,-7 17,-19 23,-34zm-121 -59l121 0c-2,-18 -6,-32 -14,-41 -12,-14 -27,-21 -46,-21 -17,0 -31,6 -43,17 -11,11 -18,27 -19,46zm206 130l0 -218 33 0 0 33c8,-15 16,-26 24,-31 7,-5 15,-7 24,-7 12,0 25,4 38,12l-13 34c-9,-5 -18,-8 -27,-8 -8,0 -15,2 -22,7 -6,5 -11,12 -14,20 -4,13 -6,27 -6,43l0 114 -37 0z"/>
 </g>
</svg>
