<?xml version="1.0" encoding="UTF-8"?>
<!DOCTYPE svg PUBLIC "-//W3C//DTD SVG 1.1//EN" "http://www.w3.org/Graphics/SVG/1.1/DTD/svg11.dtd">
<!-- Creator: CorelDRAW X6 -->
<svg xmlns="http://www.w3.org/2000/svg" xml:space="preserve" width="100%" height="100%" version="1.1" style="shape-rendering:geometricPrecision; text-rendering:geometricPrecision; image-rendering:optimizeQuality; fill-rule:evenodd; clip-rule:evenodd"
viewBox="0 0 388 395"
 xmlns:xlink="http://www.w3.org/1999/xlink">
 <defs>
  <style type="text/css">
   <![CDATA[
    .str0 {stroke:#990000;stroke-width:12.7}
    .fil1 {fill:none}
    .fil0 {fill:#990000;fill-rule:nonzero}
   ]]>
  </style>
 </defs>
 <g id="Capa_x0020_1">
  <metadata id="CorelCorpID_0Corel-Layer"/>
  <path class="fil0" d="M0 370l9 -1c0,4 1,7 3,9 2,2 4,4 7,6 3,1 7,2 11,2 4,0 7,-1 10,-2 3,-1 5,-3 6,-5 1,-2 2,-4 2,-6 0,-2 -1,-4 -2,-6 -1,-2 -4,-3 -7,-4 -2,-1 -6,-2 -13,-4 -7,-2 -11,-3 -14,-5 -3,-2 -6,-4 -8,-7 -2,-3 -3,-6 -3,-9 0,-4 1,-7 3,-10 2,-3 5,-6 9,-7 4,-2 9,-3 13,-3 5,0 10,1 14,3 4,2 7,4 10,8 2,3 3,7 4,12l-9 1c-1,-5 -2,-8 -5,-10 -3,-2 -7,-4 -13,-4 -6,0 -10,1 -13,3 -3,2 -4,5 -4,8 0,3 1,5 3,6 2,2 7,3 15,5 8,2 13,3 16,5 4,2 7,4 9,7 2,3 3,6 3,10 0,4 -1,8 -3,11 -2,3 -5,6 -10,8 -4,2 -9,3 -14,3 -7,0 -12,-1 -17,-3 -4,-2 -8,-5 -11,-9 -3,-4 -4,-8 -4,-13z"/>
  <polygon id="1" class="fil0" points="72,394 72,320 81,320 81,351 119,351 119,320 129,320 129,394 119,394 119,359 81,359 81,394 "/>
  <path id="2" class="fil0" d="M137 394l28 -73 11 0 30 73 -11 0 -8 -22 -31 0 -8 22 -10 0zm21 -30l25 0 -8 -20c-2,-6 -4,-11 -5,-15 -1,5 -2,9 -4,14l-8 21z"/>
  <path id="3" class="fil0" d="M214 394l0 -73 32 0c7,0 11,1 15,2 3,1 6,4 8,7 2,3 3,7 3,11 0,5 -2,10 -5,13 -3,4 -9,6 -16,7 3,1 5,2 6,4 3,3 6,6 8,10l13 20 -12 0 -10 -15c-3,-4 -5,-8 -7,-10 -2,-2 -3,-4 -5,-5 -1,-1 -3,-2 -4,-2 -1,0 -3,0 -5,0l-11 0 0 33 -10 0zm10 -41l21 0c4,0 8,0 10,-1 2,-1 4,-2 6,-4 1,-2 2,-4 2,-7 0,-3 -1,-6 -4,-9 -3,-2 -6,-3 -12,-3l-23 0 0 24z"/>
  <polygon id="4" class="fil0" points="287,394 287,320 340,320 340,329 297,329 297,351 337,351 337,360 297,360 297,385 342,385 342,394 "/>
  <path class="fil1 str0" d="M279 15l-1 44 -78 1c-103,1 -140,78 -116,149 4,13 8,22 13,32 13,23 11,25 24,25 9,-31 -23,-146 156,-129 3,74 -2,72 95,-26 15,-15 8,-21 -4,-33 -10,-10 -18,-18 -28,-28 -10,-10 -18,-18 -28,-28 -8,-8 -23,-27 -34,-8z"/>
 </g>
</svg>
