<?xml version="1.0" encoding="utf-8"?>
<!-- Generator: Adobe Illustrator 20.0.0, SVG Export Plug-In . SVG Version: 6.00 Build 0)  -->
<svg version="1.1" xmlns="http://www.w3.org/2000/svg" xmlns:xlink="http://www.w3.org/1999/xlink" x="0px" y="0px"
	 viewBox="0 0 360 360" style="enable-background:new 0 0 360 360;" xml:space="preserve">
<style type="text/css">
	.st0{display:none;}
	.st1{display:inline;fill:#C1C1C1;}
	.st2{display:inline;fill:#FFFFFF;}
	.st3{font-family:'ArialMT';}
	.st4{font-size:72px;}
	.st5{fill:#C1C1C1;}
	.st6{fill:#FFFFFF;}
</style>
<g id="Layer_1" class="st0">
	<path class="st1" d="M262.4,263H97.6c-21.5,0-39.1-17.6-39.1-39.1V59.1C58.5,37.6,76.1,20,97.6,20h164.8
		c21.5,0,39.1,17.6,39.1,39.1v164.8C301.5,245.4,283.9,263,262.4,263z"/>
	<rect x="183" y="57.7" class="st2" width="76.3" height="90.8"/>
	<rect x="98.7" y="57.7" class="st2" width="76.7" height="58"/>
	<rect x="98.7" y="123" class="st2" width="76.7" height="102.7"/>
	<rect x="183" y="156.7" class="st2" width="76.3" height="69"/>
	<text transform="matrix(1 0 0 1 57.6665 332)" class="st1 st3 st4">Frames</text>
</g>
<g id="Layer_2">
	<path class="st5" d="M262.4,263H97.6c-21.5,0-39.1-17.6-39.1-39.1V59.1C58.5,37.6,76.1,20,97.6,20h164.8
		c21.5,0,39.1,17.6,39.1,39.1v164.8C301.5,245.4,283.9,263,262.4,263z"/>
	<rect x="98.7" y="57.7" class="st6" width="104" height="168"/>
	<rect x="248.8" y="57.7" class="st6" width="10.5" height="168"/>
	<text transform="matrix(1 0 0 1 14.6665 332)" class="st5 st3 st4">Slideshow</text>
	<rect x="213.3" y="57.7" class="st6" width="25.4" height="168"/>
</g>
</svg>
