<?xml version="1.0" encoding="UTF-8"?>
<!DOCTYPE svg PUBLIC "-//W3C//DTD SVG 1.1//EN" "http://www.w3.org/Graphics/SVG/1.1/DTD/svg11.dtd">
<!-- Creator: CorelDRAW X6 -->
<svg xmlns="http://www.w3.org/2000/svg" xml:space="preserve" width="100%" height="100%" version="1.1" style="shape-rendering:geometricPrecision; text-rendering:geometricPrecision; image-rendering:optimizeQuality; fill-rule:evenodd; clip-rule:evenodd"
viewBox="0 0 354 354"
 xmlns:xlink="http://www.w3.org/1999/xlink">
 <defs>
  <style type="text/css">
   <![CDATA[
    .fil1 {fill:white}
    .fil0 {fill:white;fill-rule:nonzero}
   ]]>
  </style>
 </defs>
 <g id="Capa_x0020_1">
  <metadata id="CorelCorpID_0Corel-Layer"/>
  <path class="fil0" d="M92 146c9,-23 26,-41 47,-51 21,-10 46,-12 69,-3 23,9 41,26 51,47 10,21 12,46 3,69 -9,23 -26,41 -47,51 -21,10 -46,12 -69,3 -23,-9 -41,-26 -51,-47 -10,-21 -12,-46 -3,-69zm28 204c-1,3 -4,4 -7,3 -3,-1 -4,-4 -3,-7l26 -71c1,-3 4,-4 7,-3 3,1 4,4 3,7l-26 71zm99 -272c-1,3 -4,4 -7,3 -3,-1 -4,-4 -3,-7l26 -71c1,-3 4,-4 7,-3 3,1 4,4 3,7l-26 71zm-140 57c3,1 4,4 3,7 -1,3 -4,4 -7,3l-71 -26c-3,-1 -4,-4 -3,-7 1,-3 4,-4 7,-3l71 26zm272 99c3,1 4,4 3,7 -1,3 -4,4 -7,3l-71 -26c-3,-1 -4,-4 -3,-7 1,-3 4,-4 7,-3l71 26zm-102 82c1,3 0,6 -3,8 -3,1 -6,0 -8,-3l-19 -41c-1,-3 0,-6 3,-8 3,-1 6,0 8,3l19 41zm-220 -63c-3,1 -6,0 -8,-3 -1,-3 0,-6 3,-8l41 -19c3,-1 6,0 8,3 1,3 0,6 -3,8l-41 19zm108 -178c1,3 0,6 -3,8 -3,1 -6,0 -8,-3l-19 -41c-1,-3 0,-6 3,-8 3,-1 6,0 8,3l19 41zm144 61c-3,1 -6,0 -8,-3 -1,-3 0,-6 3,-8l41 -19c3,-1 6,0 8,3 1,3 0,6 -3,8l-41 19zm-136 -30c-18,9 -33,24 -41,45 -7,20 -6,42 3,60 9,18 24,33 45,41 20,7 42,6 60,-3 18,-9 33,-24 41,-45 7,-20 6,-42 -3,-60 -9,-18 -24,-33 -45,-41 -20,-7 -42,-6 -60,3z"/>
  <circle class="fil1" cx="177" cy="177" r="86"/>
 </g>
</svg>
