<?xml version="1.0" encoding="UTF-8"?>
<!DOCTYPE svg PUBLIC "-//W3C//DTD SVG 1.1//EN" "http://www.w3.org/Graphics/SVG/1.1/DTD/svg11.dtd">
<!-- Creator: CorelDRAW X6 -->
<svg xmlns="http://www.w3.org/2000/svg" xml:space="preserve" width="100%" height="100%" version="1.1" style="shape-rendering:geometricPrecision; text-rendering:geometricPrecision; image-rendering:optimizeQuality; fill-rule:evenodd; clip-rule:evenodd"
viewBox="0 0 1267 1378"
 xmlns:xlink="http://www.w3.org/1999/xlink">
 <defs>
  <style type="text/css">
   <![CDATA[
    .fil0 {fill:#B3B3B3}
    .fil1 {fill:#B3B3B3;fill-rule:nonzero}
   ]]>
  </style>
 </defs>
 <g id="Capa_x0020_1">
  <metadata id="CorelCorpID_0Corel-Layer"/>
  <path class="fil0" d="M167 402c0,46 3,220 9,264 6,37 -1,53 20,75 21,22 35,15 72,19l271 10 0 -254 -159 0 254 -259 254 259 -159 0 0 254c33,0 51,-4 84,-4 54,0 220,2 251,-19 20,-13 24,-31 26,-61 2,-23 7,-60 7,-84 1,-61 3,-139 4,-219l0 -56c-1,-77 -3,-152 -12,-210 -4,-25 -15,-47 -41,-54 -48,-12 -394,-22 -630,-14l0 -50 -170 0 0 62c-23,3 -40,8 -47,12 -28,19 -26,98 -30,148l-4 179zm354 467l339 -1c32,-4 68,0 103,-3 72,-6 128,2 128,-80 -171,40 -809,51 -912,-4 0,89 54,77 132,84l211 4zm326 -735l169 0 0 80 -169 0 0 -80z"/>
  <path class="fil1" d="M196 993l40 0 0 174c0,30 -3,54 -10,72 -7,18 -19,32 -37,43 -18,11 -41,17 -70,17 -28,0 -51,-5 -69,-15 -18,-10 -31,-24 -38,-42 -8,-18 -11,-44 -11,-75l0 -174 40 0 0 174c0,26 2,45 7,58 5,12 13,22 25,29 12,7 26,10 43,10 29,0 50,-7 62,-20 12,-13 19,-39 19,-77l0 -174zm102 384l0 -302 34 0 0 29c8,-11 17,-19 27,-25 10,-6 22,-8 36,-8 19,0 35,5 49,14 14,10 25,23 32,40 7,17 11,36 11,57 0,22 -4,42 -12,60 -8,18 -20,31 -35,41 -15,9 -31,14 -48,14 -12,0 -23,-3 -33,-8 -10,-5 -18,-12 -24,-20l0 106 -37 0zm34 -191c0,28 6,49 17,62 11,13 25,20 41,20 16,0 30,-7 42,-21 12,-14 18,-35 18,-64 0,-28 -6,-48 -17,-62 -11,-14 -25,-21 -41,-21 -16,0 -30,7 -42,22 -12,15 -18,36 -18,64zm199 108l0 -301 37 0 0 301 -37 0zm80 -109c0,-40 11,-70 34,-89 19,-16 42,-24 69,-24 30,0 54,10 73,29 19,20 28,47 28,81 0,28 -4,50 -13,66 -8,16 -21,29 -37,37 -16,9 -34,13 -53,13 -31,0 -55,-10 -74,-29 -19,-20 -28,-48 -28,-84zm38 0c0,28 6,49 18,63 12,14 28,21 46,21 18,0 34,-7 46,-21 12,-14 18,-35 18,-64 0,-27 -6,-47 -18,-61 -12,-14 -28,-21 -46,-21 -19,0 -34,7 -46,21 -12,14 -18,35 -18,62zm352 82c-14,12 -27,20 -40,25 -13,5 -26,7 -41,7 -24,0 -42,-6 -55,-17 -13,-12 -19,-27 -19,-45 0,-11 2,-20 7,-29 5,-9 11,-16 19,-21 8,-5 17,-9 27,-12 7,-2 18,-4 33,-6 30,-4 52,-8 66,-13 0,-5 0,-8 0,-10 0,-15 -4,-26 -11,-32 -9,-8 -24,-12 -42,-12 -17,0 -30,3 -39,9 -8,6 -14,17 -18,32l-36 -5c3,-15 9,-28 16,-38 8,-10 18,-17 33,-22 14,-5 31,-8 50,-8 19,0 34,2 46,7 12,4 20,10 26,17 5,7 9,15 12,25 1,6 2,18 2,34l0 49c0,34 1,56 2,65 1,9 5,18 9,26l-39 0c-4,-8 -6,-17 -7,-27zm-3 -82c-13,5 -34,10 -61,14 -15,2 -26,5 -32,7 -6,3 -11,7 -15,12 -3,5 -5,11 -5,18 0,10 4,18 11,24 7,7 18,10 33,10 14,0 27,-3 38,-9 11,-6 19,-15 24,-25 4,-8 6,-21 6,-37l0 -13zm235 109l0 -28c-14,21 -34,32 -61,32 -17,0 -33,-5 -48,-14 -15,-10 -26,-23 -34,-40 -8,-17 -12,-37 -12,-59 0,-22 4,-41 11,-59 7,-18 18,-31 33,-41 14,-9 31,-14 49,-14 13,0 25,3 35,8 10,6 19,13 25,22l0 -108 37 0 0 301 -34 0zm-117 -109c0,28 6,49 18,62 12,14 26,21 42,21 16,0 30,-7 41,-20 11,-13 17,-33 17,-60 0,-30 -6,-52 -17,-65 -11,-14 -26,-21 -43,-21 -16,0 -30,7 -41,20 -11,13 -17,34 -17,63z"/>
 </g>
</svg>
