<svg width="28px" height="28px" viewBox="0 0 56072 56070" xmlns="http://www.w3.org/2000/svg">
  <path d="M14572 23137c1352,-3713 4087,-6529 7411,-8080 3325,-1550 7240,-1835 10951,-483 3713,1350 6529,4087 8080,7410 1550,3326 1835,7242 483,10953 -1350,3711 -4087,6529 -7410,8078 -3326,1550 -7242,1835 -10953,483 -3713,-1350 -6529,-4087 -8078,-7410 -1550,-3325 -1835,-7240 -485,-10951zm4431 32340c-170,467 -686,708 -1154,539 -467,-171 -708,-688 -539,-1155l4090 -11235c170,-467 686,-708 1154,-539 467,170 708,686 539,1154l-4090 11237zm15664 -43033c-171,467 -688,708 -1155,539 -467,-170 -708,-688 -539,-1155l4090 -11235c170,-467 688,-708 1155,-539 467,171 708,688 537,1155l-4088 11235zm-22221 8959c466,170 708,688 537,1154 -170,467 -686,708 -1154,539l-11237 -4090c-467,-170 -708,-686 -537,-1154 170,-467 686,-708 1154,-539l11237 4090zm43032 15662c467,171 708,688 539,1155 -170,467 -688,708 -1155,537l-11235 -4088c-467,-171 -708,-688 -539,-1155 171,-467 688,-708 1155,-539l11235 4090zm-16198 12949c211,450 14,987 -436,1196 -450,211 -987,16 -1196,-436l-3023 -6483c-209,-450 -14,-987 436,-1196 450,-211 987,-14 1196,436l3023 6483zm-34871 -9969c-452,209 -987,14 -1198,-436 -209,-450 -14,-987 436,-1196l6483 -3023c452,-209 987,-14 1198,436 209,450 14,987 -436,1196l-6483 3023zm17039 -28270c209,450 14,987 -436,1196 -450,209 -987,14 -1196,-436l-3023 -6483c-209,-450 -14,-987 436,-1196 450,-211 987,-16 1196,434l3023 6484zm22847 9669c-450,211 -987,16 -1196,-436 -211,-450 -16,-986 434,-1196l6484 -3023c450,-209 987,-14 1196,436 209,450 14,987 -436,1198l-6483 3022zm-21549 -4755c-2908,1355 -5299,3817 -6480,7061 -1182,3245 -932,6668 423,9574 1356,2908 3817,5299 7063,6480 3244,1181 6668,932 9574,-423 2908,-1356 5299,-3819 6480,-7063 1181,-3244 932,-6668 -425,-9574 -1355,-2908 -3817,-5299 -7061,-6480 -3245,-1182 -6668,-932 -9574,425z"/>
  <circle cx="28036" cy="28035" r="10322"/>
</svg>

